<?xml version="1.0" encoding="utf-8"?>
<svg width="512px" height="494.93402px" viewBox="0 0 512 494.93402" version="1.1" xmlns:xlink="http://www.w3.org/1999/xlink" xmlns="http://www.w3.org/2000/svg">
  <g id="Group">
    <path d="M482.987 112.64C474.454 105.813 463.36 102.4 452.267 102.4L443.734 102.4L443.734 264.533L392.534 264.533L392.534 102.4L119.467 102.4L119.467 264.533L68.267 264.533L68.267 102.4L59.734 102.4C48.641 102.4 37.547 105.813 29.014 112.64C16.214 122.027 8.534 137.387 8.534 153.6L8.534 426.667L29.014 426.667C50.347 426.667 68.267 444.587 68.267 465.92L68.267 486.4L443.734 486.4L443.734 465.92C443.734 444.587 461.654 426.667 482.987 426.667L503.467 426.667L503.467 153.6C503.467 137.387 495.787 122.027 482.987 112.64L482.987 112.64L482.987 112.64ZM119.467 349.867C119.467 364.374 108.374 375.467 93.867 375.467C79.36 375.467 68.267 364.374 68.267 349.867L68.267 315.734L119.467 315.734L119.467 349.867L119.467 349.867L119.467 349.867ZM443.733 349.867C443.733 364.374 432.64 375.467 418.133 375.467C403.626 375.467 392.533 364.374 392.533 349.867L392.533 315.734L443.733 315.734L443.733 349.867L443.733 349.867L443.733 349.867Z" id="Shape" fill="#FFFFFF" fill-rule="evenodd" stroke="none" />
    <path d="M443.733 494.934L68.267 494.934C63.147 494.934 59.734 491.521 59.734 486.401L59.734 465.921C59.734 448.854 46.081 435.201 29.014 435.201L8.533 435.201C3.413 435.2 0 431.787 0 426.667L0 153.6C0 134.827 8.533 116.907 23.893 105.813C34.133 98.133 46.933 93.866 59.733 93.866L68.266 93.866C73.386 93.866 76.799 97.279 76.799 102.399L76.799 255.999L110.932 255.999L110.932 102.399C110.932 97.279 114.345 93.866 119.465 93.866L392.532 93.866C397.652 93.866 401.065 97.279 401.065 102.399L401.065 255.999L435.2 255.999L435.2 102.399C435.2 97.279 438.613 93.866 443.733 93.866L452.266 93.866C465.066 93.866 477.866 98.133 488.106 105.813L488.106 105.813C503.467 116.907 512 134.827 512 153.6L512 426.667C512 431.787 508.587 435.2 503.467 435.2L482.987 435.2C465.92 435.2 452.267 448.853 452.267 465.92L452.267 486.4C452.267 491.52 448.853 494.934 443.733 494.934L443.733 494.934ZM76.8 477.867L435.2 477.867L435.2 465.92C435.2 439.467 456.533 418.133 482.987 418.133L494.934 418.133L494.934 153.6C494.934 139.947 488.961 127.147 477.867 119.467L477.867 119.467C470.187 114.347 461.654 110.934 452.267 110.934L452.267 264.534C452.267 269.654 448.854 273.067 443.734 273.067L392.534 273.067C387.414 273.067 384.001 269.654 384.001 264.534L384.001 110.934L128 110.934L128 264.534C128 269.654 124.587 273.067 119.467 273.067L68.267 273.067C63.147 273.067 59.734 269.654 59.734 264.534L59.734 110.934C50.347 110.934 41.814 114.347 34.134 119.467C23.041 127.147 17.067 139.947 17.067 153.6L17.067 418.133L29.014 418.133C55.467 418.133 76.801 439.466 76.801 465.92L76.801 477.867L76.8 477.867ZM418.133 384C399.36 384 384 368.64 384 349.867L384 315.734C384 310.614 387.413 307.201 392.533 307.201L443.733 307.201C448.853 307.201 452.266 310.614 452.266 315.734L452.266 349.867C452.267 368.64 436.907 384 418.133 384L418.133 384ZM401.067 324.267L401.067 349.867C401.067 359.254 408.747 366.934 418.134 366.934C427.521 366.934 435.201 359.254 435.201 349.867L435.201 324.267L401.067 324.267L401.067 324.267ZM93.867 384C75.094 384 59.734 368.64 59.734 349.867L59.734 315.734C59.734 310.614 63.147 307.201 68.267 307.201L119.467 307.201C124.587 307.201 128 310.614 128 315.734L128 349.867C128 368.64 112.64 384 93.867 384L93.867 384ZM76.8 324.267L76.8 349.867C76.8 359.254 84.48 366.934 93.867 366.934C103.254 366.934 110.934 359.254 110.934 349.867L110.934 324.267L76.8 324.267L76.8 324.267Z" id="Shape" fill="#13A985" fill-rule="evenodd" stroke="none" />
    <path d="M68.267 486.4L46.08 486.4C25.6 486.4 8.533 469.333 8.533 448.853L8.533 426.667L29.013 426.667C50.346 426.667 68.266 444.587 68.266 465.92L68.266 486.4L68.267 486.4L68.267 486.4Z" id="Shape" fill="#D0E8F9" stroke="none" />
    <path d="M76.8 494.934L46.08 494.934C20.48 494.934 0 474.454 0 448.854L0 418.134L29.013 418.134C55.466 418.134 76.8 439.467 76.8 465.921L76.8 494.934L76.8 494.934ZM17.067 435.2L17.067 448.853C17.067 465.066 29.867 477.866 46.08 477.866L59.733 477.866L59.733 465.919C59.733 448.852 46.08 435.199 29.013 435.199L17.067 435.199L17.067 435.2Z" id="Shape" fill="#13A985" fill-rule="evenodd" stroke="none" />
    <path d="M503.467 426.667L503.467 448.854C503.467 469.334 486.4 486.401 465.92 486.401L443.733 486.401L443.733 465.921C443.733 444.588 461.653 426.668 482.986 426.668L503.467 426.668L503.467 426.667L503.467 426.667Z" id="Shape" fill="#D0E8F9" stroke="none" />
    <path d="M465.92 494.934L435.2 494.934L435.2 465.921C435.2 439.468 456.533 418.134 482.987 418.134L512 418.134L512 448.854C512 474.454 491.52 494.934 465.92 494.934L465.92 494.934ZM452.267 477.867L465.92 477.867C482.133 477.867 494.933 465.067 494.933 448.854L494.933 435.201L482.986 435.201C465.919 435.201 452.266 448.854 452.266 465.921L452.266 477.867L452.267 477.867Z" id="Shape" fill="#13A985" fill-rule="evenodd" stroke="none" />
    <path d="M145.067 76.8C145.067 76.8 213.333 76.8 213.333 76.8C213.333 76.8 213.333 102.4 213.333 102.4C213.333 102.4 145.067 102.4 145.067 102.4C145.067 102.4 145.067 76.8 145.067 76.8Z" id="Polygon" fill="#FFFFFF" fill-rule="evenodd" stroke="none" />
    <path d="M221.867 110.934L136.534 110.934L136.534 68.267L221.867 68.267L221.867 110.934L221.867 110.934ZM153.6 93.867L204.8 93.867L204.8 85.334L153.6 85.334L153.6 93.867L153.6 93.867Z" id="Shape" fill="#13A985" fill-rule="evenodd" stroke="none" />
    <path d="M298.667 76.8C298.667 76.8 366.933 76.8 366.933 76.8C366.933 76.8 366.933 102.4 366.933 102.4C366.933 102.4 298.667 102.4 298.667 102.4C298.667 102.4 298.667 76.8 298.667 76.8Z" id="Polygon" fill="#FFFFFF" fill-rule="evenodd" stroke="none" />
    <path d="M375.467 110.934L290.134 110.934L290.134 68.267L375.467 68.267L375.467 110.934L375.467 110.934ZM307.2 93.867L358.4 93.867L358.4 85.334L307.2 85.334L307.2 93.867L307.2 93.867Z" id="Shape" fill="#13A985" fill-rule="evenodd" stroke="none" />
    <path d="M315.733 54.614L315.733 76.801L349.866 76.801L349.866 58.881C349.866 30.721 327.679 8.534 299.519 8.534L212.479 8.534C184.319 8.534 162.132 30.721 162.132 58.881L162.132 76.801L196.265 76.801L196.265 54.614C196.265 45.227 205.652 38.401 215.038 42.667C241.491 53.76 271.358 53.76 297.811 42.667C306.347 39.254 315.733 45.227 315.733 54.614L315.733 54.614L315.733 54.614Z" id="Shape" fill="#D0E8F9" stroke="none" />
    <path d="M358.4 85.334L307.2 85.334L307.2 54.614C307.2 52.907 305.493 51.201 305.493 51.201C304.64 51.201 302.933 49.494 301.226 50.348C272.213 62.295 240.639 62.295 212.479 50.348C209.919 49.495 208.212 50.348 208.212 51.201C206.505 51.201 204.799 52.908 204.799 54.614L204.799 85.334L153.599 85.334L153.599 58.88C153.599 26.453 180.052 0 212.479 0L299.519 0C331.946 0 358.399 26.453 358.399 58.88L358.399 85.334L358.4 85.334ZM324.267 68.267L341.334 68.267L341.334 58.88C341.334 35.84 322.561 17.067 299.521 17.067L212.481 17.067C189.441 17.067 170.668 35.84 170.668 58.88L170.668 68.267L187.735 68.267L187.735 54.614C187.735 46.934 191.148 40.107 197.122 36.694C203.095 32.427 210.775 31.574 217.602 34.987C242.349 45.227 268.802 45.227 293.549 34.987C300.376 32.427 308.056 33.28 314.029 36.694C320.856 40.961 324.269 47.787 324.269 54.614L324.269 68.267L324.267 68.267Z" id="Shape" fill="#13A985" fill-rule="evenodd" stroke="none" />
    <path d="M213.333 179.2C213.333 179.2 298.667 179.2 298.667 179.2C298.667 179.2 298.667 213.334 298.667 213.334C298.667 213.334 213.333 213.334 213.333 213.334C213.333 213.334 213.333 179.2 213.333 179.2Z" id="Polygon" fill="#D0E8F9" fill-rule="evenodd" stroke="none" />
    <path d="M204.8 221.867L307.2 221.867L307.2 170.667L204.8 170.667L204.8 221.867ZM290.134 204.8L221.867 204.8L221.867 187.733L290.134 187.733L290.134 204.8ZM42.667 324.267L145.066 324.267L145.066 298.667L375.466 298.667L375.466 281.6L145.066 281.6L145.066 256L42.666 256L42.666 281.6L8.533 281.6L8.533 298.667L42.667 298.667L42.667 324.267ZM128 307.2L59.733 307.2L59.733 273.067L128 273.067L128 307.2ZM460.8 298.667L503.467 298.667L503.467 281.6L460.8 281.6L460.8 298.667Z" id="Group" fill="#13A985" fill-rule="evenodd" stroke="none" />
    <path d="M119.467 264.534L119.467 92.16C119.467 83.627 112.64 76.8 104.107 76.8L83.627 76.8C75.094 76.8 68.267 83.627 68.267 92.16L68.267 264.533L119.467 264.533L119.467 264.534L119.467 264.534Z" id="Shape" fill="#D0E8F9" stroke="none" />
    <path d="M128 273.067L59.733 273.067L59.733 92.16C59.733 79.36 70.826 68.267 83.626 68.267L104.106 68.267C116.906 68.267 127.999 79.36 127.999 92.16L127.999 273.067L128 273.067ZM76.8 256L110.933 256L110.933 92.16C110.933 88.747 107.52 85.333 104.106 85.333L83.626 85.333C80.213 85.333 76.799 88.746 76.799 92.16L76.799 256L76.8 256Z" id="Shape" fill="#13A985" fill-rule="evenodd" stroke="none" />
    <path d="M68.267 315.734L68.267 349.867C68.267 364.374 79.36 375.467 93.867 375.467C108.374 375.467 119.467 364.374 119.467 349.867L119.467 315.734L68.267 315.734L68.267 315.734L68.267 315.734Z" id="Shape" fill="#D0E8F9" stroke="none" />
    <path d="M93.867 204.801C98.987 204.801 102.4 208.214 102.4 213.334C102.4 218.454 98.987 221.867 93.867 221.867C88.747 221.867 85.334 218.454 85.334 213.334C85.334 208.214 88.747 204.801 93.867 204.801ZM102.4 281.6C102.4 286.72 98.987 290.134 93.867 290.134C88.747 290.134 85.334 286.721 85.334 281.601L85.334 247.467C85.334 242.347 88.747 238.934 93.867 238.934C98.987 238.934 102.4 242.347 102.4 247.467L102.4 281.6ZM366.933 256L366.933 324.267L469.333 324.267L469.333 256L366.933 256ZM59.734 307.2L59.734 349.867C59.734 368.64 75.094 384 93.867 384C112.64 384 128 368.64 128 349.867L128 307.2L59.734 307.2ZM93.867 366.934C84.48 366.934 76.8 359.254 76.8 349.867L76.8 324.267L110.934 324.267L110.934 349.867C110.934 359.254 103.254 366.934 93.867 366.934ZM93.867 332.801C98.987 332.801 102.4 336.214 102.4 341.334C102.4 346.454 98.987 349.867 93.867 349.867C88.747 349.867 85.334 346.454 85.334 341.334C85.334 336.214 88.747 332.801 93.867 332.801Z" id="Group" fill="#13A985" fill-rule="evenodd" stroke="none" />
    <path d="M443.733 264.534L443.733 92.16C443.733 83.627 436.906 76.8 428.373 76.8L407.893 76.8C399.36 76.8 392.533 83.627 392.533 92.16L392.533 264.533L443.733 264.533L443.733 264.534L443.733 264.534Z" id="Shape" fill="#D0E8F9" stroke="none" />
    <path d="M452.267 273.067L384 273.067L384 92.16C384 79.36 395.093 68.267 407.893 68.267L428.373 68.267C441.173 68.267 452.266 79.36 452.266 92.16L452.266 273.067L452.267 273.067ZM401.067 256L435.2 256L435.2 92.16C435.2 88.747 431.787 85.333 428.373 85.333L407.893 85.333C404.48 85.333 401.066 88.746 401.066 92.16L401.066 256L401.067 256Z" id="Shape" fill="#13A985" fill-rule="evenodd" stroke="none" />
    <path d="M392.533 315.734L392.533 349.867C392.533 364.374 403.626 375.467 418.133 375.467C432.64 375.467 443.733 364.374 443.733 349.867L443.733 315.734L392.533 315.734L392.533 315.734L392.533 315.734Z" id="Shape" fill="#D0E8F9" stroke="none" />
    <g id="Group" transform="translate(247.467 204.801)">
      <path d="M170.666 179.199C151.893 179.199 136.533 163.839 136.533 145.066L136.533 102.399L204.8 102.399L204.8 145.066C204.8 163.839 189.44 179.199 170.666 179.199L170.666 179.199ZM153.6 119.466L153.6 145.066C153.6 154.453 161.28 162.133 170.667 162.133C180.054 162.133 187.734 154.453 187.734 145.066L187.734 119.466L153.6 119.466L153.6 119.466Z" id="Shape" fill="#13A985" fill-rule="evenodd" stroke="none" />
      <path d="M170.666 85.333C165.546 85.333 162.133 81.92 162.133 76.8L162.133 42.666C162.133 37.546 165.546 34.133 170.666 34.133C175.786 34.133 179.199 37.546 179.199 42.666L179.199 76.799C179.2 81.919 175.786 85.333 170.666 85.333L170.666 85.333Z" id="Shape" fill="#13A985" stroke="none" />
      <path d="M179.2 8.533C179.2 13.653 175.787 17.066 170.667 17.066C165.547 17.066 162.134 13.653 162.134 8.533C162.134 3.41301 165.547 0 170.667 0C175.787 0 179.2 3.41299 179.2 8.533" id="Shape" fill="#13A985" stroke="none" />
      <path d="M179.2 136.533C179.2 141.653 175.787 145.066 170.667 145.066C165.547 145.066 162.134 141.653 162.134 136.533C162.134 131.413 165.547 128 170.667 128C175.787 128 179.2 131.413 179.2 136.533" id="Shape" fill="#13A985" stroke="none" />
      <path d="M0 85.333L17.067 85.333L17.067 281.6L0 281.6L0 85.333Z" id="Rectangle" fill="#13A985" fill-rule="evenodd" stroke="none" />
    </g>
  </g>
</svg>