<?xml version="1.0" encoding="iso-8859-1"?>
<!-- Uploaded to: SVG Repo, www.svgrepo.com, Generator: SVG Repo Mixer Tools -->
<svg height="800px" width="800px" version="1.1" id="Layer_1" xmlns="http://www.w3.org/2000/svg" xmlns:xlink="http://www.w3.org/1999/xlink" 
	 viewBox="0 0 513.069 513.069" xml:space="preserve">
<g transform="translate(1 1)">
	<path style="fill:#FFFFFF;" d="M494.468,247.001v237.227c0,10.24-8.533,18.773-18.773,18.773H35.375
		c-10.24,0-18.773-8.533-18.773-18.773V247.001l-8.533-2.56v-81.067c0-34.133,27.307-61.44,60.587-61.44h372.907
		c33.28,0,60.587,27.307,60.587,60.587v81.067L494.468,247.001L494.468,247.001z"/>
	<path style="fill:#0096E6;" d="M475.695,511.535H35.375c-15.36,0-27.307-11.947-27.307-27.307V252.975l-8.533-2.56v-87.893
		c0-38.4,30.72-69.12,69.12-69.12h372.907c38.4,0,69.12,30.72,69.12,69.12v87.04l-8.533,2.56v231.253
		C503.001,499.588,491.055,511.535,475.695,511.535z M16.601,237.615l8.533,2.56v243.2c0,5.973,5.12,11.093,10.24,11.093h439.467
		c5.973,0,10.24-5.12,10.24-10.24v-243.2l8.533-2.56v-75.093c0-29.013-23.893-52.053-52.053-52.053H68.655
		c-28.16-0.853-52.053,23.04-52.053,51.2V237.615z"/>
	<polygon style="fill:#FFFFFF;" points="144.601,76.335 212.868,76.335 212.868,101.935 144.601,101.935 	"/>
	<path style="fill:#0096E6;" d="M221.401,110.468h-85.333V67.801h85.333V110.468z M153.135,93.401h51.2v-8.533h-51.2V93.401z"/>
	<polygon style="fill:#FFFFFF;" points="298.201,76.335 366.468,76.335 366.468,101.935 298.201,101.935 	"/>
	<path style="fill:#0096E6;" d="M375.001,110.468h-85.333V67.801h85.333V110.468z M306.735,93.401h51.2v-8.533h-51.2V93.401z"/>
	<path style="fill:#D0E8F9;" d="M315.268,54.148v22.187h34.133v-17.92c0-28.16-22.187-50.347-50.347-50.347h-87.04
		c-28.16,0-50.347,22.187-50.347,50.347v17.92h34.133V54.148c0-9.387,9.387-16.213,18.773-11.947
		c26.453,11.093,56.32,11.093,82.773,0C305.881,38.788,315.268,44.761,315.268,54.148L315.268,54.148z"/>
	<path style="fill:#0096E6;" d="M357.935,84.868h-51.2v-30.72c0-1.707-1.707-3.413-1.707-3.413c-0.853,0-2.56-1.707-4.267-0.853
		c-29.013,11.947-60.587,11.947-88.747,0c-2.56-0.853-4.267,0-4.267,0.853c-1.707,0-3.413,1.707-3.413,3.413v30.72h-51.2V58.415
		c0-32.427,26.453-58.88,58.88-58.88h87.04c32.427,0,58.88,26.453,58.88,58.88V84.868z M323.801,67.801h17.067v-9.387
		c0-23.04-18.773-41.813-41.813-41.813h-87.04c-23.04,0-41.813,18.773-41.813,41.813v9.387h17.067V54.148
		c0-7.68,3.413-14.507,9.387-17.92c5.973-4.267,13.653-5.12,20.48-1.707c24.747,10.24,51.2,10.24,75.947,0
		c6.827-2.56,14.507-1.707,20.48,1.707c6.827,4.267,10.24,11.093,10.24,17.92V67.801z"/>
	<polygon style="fill:#D0E8F9;" points="366.468,426.201 451.801,426.201 451.801,460.335 366.468,460.335 	"/>
	<path style="fill:#0096E6;" d="M460.335,468.868h-102.4v-51.2h102.4V468.868z M375.001,451.801h68.267v-17.067h-68.267V451.801z"/>
	<polygon style="fill:#FFFFFF;" points="264.068,375.001 247.001,375.001 221.401,349.401 221.401,323.801 289.668,323.801 
		289.668,349.401 	"/>
	<path style="fill:#0096E6;" d="M267.481,383.535h-23.893l-30.72-30.72v-37.547h85.333v37.547L267.481,383.535z M250.415,366.468
		h10.24l20.48-20.48v-13.653h-51.2v13.653L250.415,366.468z"/>
	<path id="SVGCleanerId_0" style="fill:#0096E6;" d="M323.801,332.335H187.268V212.868h136.533V332.335z M204.335,315.268h102.4
		v-85.333h-102.4V315.268z"/>
	<polygon style="fill:#FFFFFF;" points="221.401,221.401 289.668,221.401 289.668,101.935 221.401,101.935 	"/>
	<path style="fill:#0096E6;" d="M298.201,229.935h-85.333V93.401h85.333V229.935z M229.935,212.868h51.2v-102.4h-51.2V212.868z"/>
	<polygon style="fill:#D0E8F9;" points="195.801,221.401 315.268,221.401 315.268,323.801 195.801,323.801 	"/>
	<g>
		<path id="SVGCleanerId_0_1_" style="fill:#0096E6;" d="M323.801,332.335H187.268V212.868h136.533V332.335z M204.335,315.268h102.4
			v-85.333h-102.4V315.268z"/>
	</g>
	<path style="fill:#0096E6;" d="M255.535,306.735c-5.12,0-8.533-3.413-8.533-8.533v-17.067c0-5.12,3.413-8.533,8.533-8.533
		s8.533,3.413,8.533,8.533v17.067C264.068,303.321,260.655,306.735,255.535,306.735z M306.735,298.201v-68.267h-102.4v68.267
		l-9.387-0.853c-52.907-4.267-94.72-12.8-139.093-28.16l-51.2-17.92c-4.267-1.707-6.827-5.973-5.12-11.093
		c1.707-4.267,5.973-6.827,11.093-5.12l51.2,17.92c40.107,13.653,78.507,22.187,125.44,26.453v-66.56h136.533v66.56
		c48.64-5.12,88.747-13.653,125.44-25.6l51.2-17.92c4.267-1.707,9.387,0.853,11.093,5.12s-0.853,9.387-5.12,11.093l-51.2,17.92
		c-40.107,13.653-84.48,22.187-139.093,27.307L306.735,298.201z"/>
	<polygon style="fill:#FFFFFF;" points="238.468,247.001 272.601,247.001 272.601,281.135 238.468,281.135 	"/>
	<path style="fill:#0096E6;" d="M281.135,289.668h-51.2v-51.2h51.2V289.668z M247.001,272.601h17.067v-17.067h-17.067V272.601z"/>
</g>
</svg>